<svg width="40" height="40" viewBox="0 0 40 40" fill="none" xmlns="http://www.w3.org/2000/svg">
<path d="M6.00291 10.0029C6.00291 7.7938 7.79379 6.00292 10.0029 6.00292H29.9974C32.2066 6.00292 33.9974 7.7938 33.9974 10.0029V23.7356L32.0336 20.3302C31.621 19.6145 31.0242 19.022 30.3054 18.6129C29.1896 17.9779 27.919 17.8528 26.7712 18.1624C26.1688 18.3249 25.598 18.6077 25.0988 19.0002H16.9912C16.4389 19.0002 15.9912 19.448 15.9912 20.0002C15.9912 20.5526 16.4389 21.0002 16.9912 21.0002H23.5618L20.6782 26.0002H16.9912C16.4389 26.0002 15.9912 26.448 15.9912 27.0002C15.9912 27.5526 16.4389 28.0002 16.9912 28.0002H19.5249L16.6093 33.056C16.4369 33.355 16.2993 33.6708 16.198 33.9974H10.0029C7.79379 33.9974 6.00291 32.2066 6.00291 29.9974V10.0029ZM14 12.9958C14 12.1674 13.3284 11.4958 12.5 11.4958C11.6716 11.4958 11 12.1674 11 12.9958C11 13.8243 11.6716 14.4958 12.5 14.4958C13.3284 14.4958 14 13.8243 14 12.9958ZM14 20.0046C14 19.1762 13.3284 18.5046 12.5 18.5046C11.6716 18.5046 11 19.1762 11 20.0046C11 20.833 11.6716 21.5046 12.5 21.5046C13.3284 21.5046 14 20.833 14 20.0046ZM12.5 28.5046C13.3284 28.5046 14 27.833 14 27.0046C14 26.1762 13.3284 25.5046 12.5 25.5046C11.6716 25.5046 11 26.1762 11 27.0046C11 27.833 11.6716 28.5046 12.5 28.5046ZM15.9912 12.9915C15.9912 13.5437 16.4389 13.9915 16.9912 13.9915H26.9912C27.5434 13.9915 27.9912 13.5437 27.9912 12.9915C27.9912 12.4392 27.5434 11.9915 26.9912 11.9915H16.9912C16.4389 11.9915 15.9912 12.4392 15.9912 12.9915Z" fill="#212121"/>
<path d="M27.292 20.0934C27.9524 19.9153 28.6776 19.9877 29.316 20.351C29.727 20.585 30.0668 20.9228 30.3012 21.3294L37.64 34.0552C38.004 34.6864 38.076 35.4018 37.898 36.0528C37.72 36.704 37.293 37.2868 36.6548 37.65C36.252 37.8792 35.795 38.0002 35.3298 38.0002H20.652C19.9149 38.0002 19.2503 37.7044 18.7682 37.2256C18.2863 36.7468 17.9912 36.0896 17.9912 35.3634C17.9912 34.9048 18.1119 34.4538 18.3418 34.0552L25.6806 21.3294C26.045 20.6976 26.6318 20.2716 27.292 20.0934ZM28.9912 24.9984C28.9902 24.4462 28.5418 23.9992 27.9894 24.0002C27.4372 24.0012 26.9902 24.4498 26.9912 25.002L27 30.0066C27.001 30.5588 27.4494 31.0058 28.0018 31.0048C28.554 31.0038 29.001 30.5552 29 30.003L28.9912 24.9984ZM28 36.0002C28.8284 36.0002 29.5 35.3286 29.5 34.5002C29.5 33.6718 28.8284 33.0002 28 33.0002C27.1716 33.0002 26.5 33.6718 26.5 34.5002C26.5 35.3286 27.1716 36.0002 28 36.0002Z" fill="#212121"/>
</svg>
