<svg width="40" height="40" viewBox="0 0 40 40" fill="none" xmlns="http://www.w3.org/2000/svg">
<path d="M33.6016 15H6.39844C5.01563 15 4.94531 15.7188 5.02344 16.6016L6.03906 30.8984C6.10938 31.7734 6.3125 32.5 7.6875 32.5H32.3906C33.7969 32.5 33.9609 31.7812 34.0391 30.8984L34.9844 16.4219C35.0547 15.5469 34.9844 15 33.6016 15Z" fill="black"/>
<path d="M33.2969 11.1953C33.2578 10.2266 32.9453 10 32.1172 10C32.1172 10 22.6328 10 20.9297 10C19.2266 10 19.0234 10.0234 17.7344 8.64063C16.6641 7.48438 17.0859 7.5 14.875 7.5C13.1094 7.5 8.99219 7.5 8.99219 7.5C7.63281 7.5 7.14844 7.38282 7.02344 8.79688C6.90625 10.1016 6.63281 13.2656 6.59375 13.75H33.4219L33.2969 11.1953Z" fill="black"/>
</svg>
