<svg width="40" height="40" viewBox="0 0 40 40" fill="none" xmlns="http://www.w3.org/2000/svg">
<path d="M20.2567 17.8826L13.4811 8.402H9.86736L18.2605 20.1452L19.317 21.6224L26.5011 31.6826H30.1149L21.3087 19.3598L20.2567 17.8826Z" fill="black"/>
<path d="M35.2663 1.66667H4.73369C3.03976 1.66667 1.66667 3.03976 1.66667 4.73368V35.2663C1.66667 36.9602 3.03976 38.3333 4.73369 38.3333H35.2663C36.9603 38.3333 38.3333 36.9602 38.3333 35.2663V4.73368C38.3333 3.03976 36.9603 1.66667 35.2663 1.66667ZM25.3923 33.3333L18.1213 22.9783L9.01907 33.3333H6.66667L17.0782 21.4922L6.66667 6.66667H14.6078L21.4913 16.4699L30.116 6.66667H32.4683L22.54 17.9594L33.3333 33.3333H25.3923Z" fill="black"/>
</svg>
