<svg width="40" height="40" viewBox="0 0 40 40" fill="none" xmlns="http://www.w3.org/2000/svg">
<path d="M19.8942 11.7813C14.9559 11.7813 10.8642 15.8025 10.8642 20.8113C10.8642 25.8201 14.8854 29.8413 19.8942 29.8413C24.903 29.8413 28.9242 25.7496 28.9242 20.8113C28.9242 15.873 24.8325 11.7813 19.8942 11.7813ZM19.8942 26.5961C16.7196 26.5961 14.1093 23.9859 14.1093 20.8113C14.1093 17.6367 16.7196 15.0265 19.8942 15.0265C23.0688 15.0265 25.679 17.6367 25.679 20.8113C25.679 23.9859 23.0688 26.5961 19.8942 26.5961Z" fill="black"/>
<path d="M29.2769 13.6155C30.4068 13.6155 31.3227 12.6996 31.3227 11.5697C31.3227 10.4398 30.4068 9.52381 29.2769 9.52381C28.147 9.52381 27.231 10.4398 27.231 11.5697C27.231 12.6996 28.147 13.6155 29.2769 13.6155Z" fill="black"/>
<path d="M34.5679 6.27866C32.7337 4.3739 30.1235 3.38624 27.1605 3.38624H12.6279C6.4903 3.38624 2.39859 7.47795 2.39859 13.6155V28.0776C2.39859 31.1111 3.38624 33.7213 5.36155 35.6261C7.26631 37.4603 9.806 38.3774 12.6984 38.3774H27.0899C30.1235 38.3774 32.6631 37.3898 34.4974 35.6261C36.4021 33.7919 37.3898 31.1817 37.3898 28.1481V13.6155C37.3898 10.6526 36.4021 8.11287 34.5679 6.27866ZM34.2857 28.1481C34.2857 30.3351 33.5097 32.0988 32.2399 33.2981C30.97 34.4974 29.2063 35.1323 27.0899 35.1323H12.6984C10.582 35.1323 8.81834 34.4974 7.5485 33.2981C6.27866 32.0282 5.64374 30.2645 5.64374 28.0776V13.6155C5.64374 11.4991 6.27866 9.73545 7.5485 8.46561C8.7478 7.26631 10.582 6.63139 12.6984 6.63139H27.231C29.3474 6.63139 31.1111 7.26631 32.381 8.53615C33.5802 9.806 34.2857 11.5697 34.2857 13.6155V28.1481Z" fill="black"/>
</svg>
