<svg width="40" height="40" viewBox="0 0 40 40" fill="none" xmlns="http://www.w3.org/2000/svg">
<path d="M14.1707 6H11C9.34314 6 8 7.34314 8 9V33C8 34.6568 9.34314 36 11 36H29C30.6568 36 32 34.6568 32 33V9C32 7.34314 30.6568 6 29 6H25.8292C25.4174 4.8348 24.3062 4 23 4H17C15.6938 4 14.5825 4.8348 14.1707 6ZM17 6H23C23.5522 6 24 6.44772 24 7C24 7.55228 23.5522 8 23 8H17C16.4477 8 16 7.55228 16 7C16 6.44772 16.4477 6 17 6ZM18 17C18 16.4477 18.4477 16 19 16H26C26.5522 16 27 16.4477 27 17C27 17.5523 26.5522 18 26 18H19C18.4477 18 18 17.5523 18 17ZM18 23C18 22.4478 18.4477 22 19 22H26C26.5522 22 27 22.4478 27 23C27 23.5522 26.5522 24 26 24H19C18.4477 24 18 23.5522 18 23ZM18 29C18 28.4478 18.4477 28 19 28H26C26.5522 28 27 28.4478 27 29C27 29.5522 26.5522 30 26 30H19C18.4477 30 18 29.5522 18 29ZM16 17C16 17.8284 15.3284 18.5 14.5 18.5C13.6716 18.5 13 17.8284 13 17C13 16.1716 13.6716 15.5 14.5 15.5C15.3284 15.5 16 16.1716 16 17ZM16 23C16 23.8284 15.3284 24.5 14.5 24.5C13.6716 24.5 13 23.8284 13 23C13 22.1716 13.6716 21.5 14.5 21.5C15.3284 21.5 16 22.1716 16 23ZM14.5 30.5C13.6716 30.5 13 29.8284 13 29C13 28.1716 13.6716 27.5 14.5 27.5C15.3284 27.5 16 28.1716 16 29C16 29.8284 15.3284 30.5 14.5 30.5Z" fill="#212121"/>
</svg>
